PathFileType	4	(X/Y/Z)	Patient4_TMGait_0pt4_02_right_14.trc.trc
DataRate	CameraRate	NumFrames	NumMarkers	Units	OrigDataRate	OrigDataStartFrame	OrigNumFrames
75.268817204301	75.268817204301	4	33	mm	75.268817204301	18	       141
Frame#	Time	Sacral			L.Shoulder			Chest			R.Shoulder			Neck			R.ASIS			L.ASIS			R.Thigh.Superior			R.Thigh.Lateral			R.Thigh.Inferior			R.Patella			L.Thigh.Superior			L.Thigh.Lateral			L.Thigh.Inferior			L.Patella			L.Shank.Superior			L.Shank.Lateral			L.Shank.Inferior			R.Shank.Superior			R.Shank.Lateral			R.Shank.Inferior			R.Heel			R.Midfoot.Superior			R.Midfoot.Lateral			R.Toe			L.Heel			L.Midfoot.Lateral			L.Midfoot.Superior			L.Toe			L.Elbow			L.Wrist			R.Elbow			R.Wrist			
		X1	Y1	Z1	X2	Y2	Z2	X3	Y3	Z3	X4	Y4	Z4	X5	Y5	Z5	X6	Y6	Z6	X7	Y7	Z7	X8	Y8	Z8	X9	Y9	Z9	X10	Y10	Z10	X11	Y11	Z11	X12	Y12	Z12	X13	Y13	Z13	X14	Y14	Z14	X15	Y15	Z15	X16	Y16	Z16	X17	Y17	Z17	X18	Y18	Z18	X19	Y19	Z19	X20	Y20	Z20	X21	Y21	Z21	X22	Y22	Z22	X23	Y23	Z23	X24	Y24	Z24	X25	Y25	Z25	X26	Y26	Z26	X27	Y27	Z27	X28	Y28	Z28	X29	Y29	Z29	X30	Y30	Z30	X31	Y31	Z31	X32	Y32	Z32	X33	Y33	Z33	

18	18.255857142857	842.740995379203	1005.739242110153	420.126216368717	1040.338847484920	1421.258843435020	221.054517562989	1127.613797245726	1365.612264249420	395.402823202807	1029.985088816541	1451.358454539349	555.912853580094	1007.688757269459	1494.491564562758	371.734964787175	1067.644109430615	947.635637810701	549.670190622262	1065.875513938167	965.477838648654	272.203914462823	1136.398749089223	764.712777030573	525.773977990190	1090.902746217786	651.190055501613	607.794012887704	1173.803312445012	604.051965583393	526.315288046227	1204.602030722949	527.767109398687	546.118475984128	1081.723401699770	742.247548340011	303.697249094685	974.901222146188	639.473976123528	237.385756003936	1041.530327214405	551.392967299827	301.962343157046	1030.301412050347	485.867203326075	310.811738985675	1002.934739004919	416.553322468424	302.353192775216	908.766417244595	304.948814046479	251.518542609849	957.897805055398	193.117740772520	325.114854000118	1194.546436898939	443.063047769786	563.226950272354	1151.473508464882	331.292263576339	635.838099036041	1223.513735593525	246.874833323363	585.414442031890	1142.293202921121	55.766260627845	570.958751786782	1303.930727660200	135.542357971731	599.592099254452	1230.282768232893	58.737027905042	639.473758638375	1430.118300614251	104.345949201219	618.714378853962	827.342511485167	38.426034665837	369.736924752260	901.762300154310	34.453476175525	289.357297143635	984.617737805239	96.321017337514	316.642797515673	1113.797093467362	45.227943464016	290.986961997644	1093.543263232433	1073.495722507023	107.975726026998	1316.602917283392	936.254443977206	133.561421992651	889.350104563134	1148.730528414390	692.216438241499	879.147219897801	889.493543380031	727.895733165707	
19	18.269142857143	843.795458799219	1004.707121965583	422.261895634530	1039.981141665357	1420.831287591847	223.596823485899	1127.333762013070	1365.370245747447	397.956992522006	1029.272447057796	1450.615929973491	558.486668504314	1007.122252346289	1493.826480147765	374.303720261776	1068.772547117782	946.590130837537	551.737145806984	1066.997319003666	965.220105621332	274.259533400844	1138.280374308504	763.774913637599	527.951897667296	1090.660470350671	648.784762997441	607.825851193227	1174.853772707579	602.632382145267	527.604818521710	1204.348543011045	525.123497231135	546.611537243078	1080.836886701736	741.228673197846	305.373731766043	972.842221192718	639.502849176252	238.698483524326	1038.507923761842	550.729824996131	303.104874703908	1026.726239713782	485.283630516926	311.767756563471	998.974595857349	416.285982270580	303.142018312541	904.256337094198	305.283170310866	252.092293374169	952.943991281107	193.006699206286	325.357502367507	1192.282142149223	439.362104148810	562.763526569418	1145.789424532701	328.550580301098	634.488400700440	1215.414729554269	242.462060555056	584.024543030354	1128.872004252670	54.296827402848	568.793173004077	1292.279035612182	129.521640161742	597.896711839607	1216.577893322821	55.099285354896	637.681205580976	1417.489960278098	94.981707905660	617.521909515832	821.972351724882	38.416846490376	369.731944416197	896.384694554152	34.453045584969	289.364541440023	979.268510286474	96.262445465049	316.690814435142	1108.423697169858	45.119506051683	291.017736532613	1093.833178872063	1073.437327419739	110.026444319824	1320.504989468372	942.875543837793	137.046311077559	889.616032076218	1147.218744323260	693.922773060218	881.933737375497	887.563583518538	727.838221486384	
20	18.282428571429	845.111810859280	1003.512957855982	424.657376476839	1039.501769223468	1420.369007333369	226.374798245513	1127.068281508553	1365.127310119164	400.687478564588	1028.592649688797	1449.756135873132	561.314132815825	1006.504007406944	1493.083677809219	377.137848335624	1070.226339024209	945.435255482090	553.849804691337	1068.264222714370	964.895030011510	276.402873596264	1140.408464989413	762.541385414584	530.241008212475	1090.352537363371	646.174133984707	607.737035115219	1175.925630733747	601.015617386769	528.863116469541	1203.946726526247	522.099875001214	546.960266377162	1080.184992420322	740.145451969198	306.922786634958	970.912902578439	639.506431882858	240.092205628244	1035.719293917294	550.022524839207	304.195279389051	1023.415773693292	484.619333639018	312.713257782507	995.228254804319	415.969901317242	303.936077481291	899.837373376934	305.641832835861	252.732965674033	948.040118435908	192.861871544278	325.595508750480	1189.627493097208	435.220859026091	562.165245942409	1139.323067884054	325.512558723060	632.959934956233	1206.286789673986	237.557990175221	582.454627566685	1113.900042130865	52.619999265301	566.594445385684	1279.225100328698	123.065296155971	595.985501048269	1201.360299311104	51.265472645671	635.837890316814	1403.454927701236	84.977281339910	616.094755141823	816.605648092811	38.397504262353	369.726536853220	891.011522192748	34.452781454473	289.377127109630	973.924112166232	96.202159276515	316.743994534959	1103.057770607708	44.971980736896	291.049096262408	1093.928368516085	1073.342939052892	112.187633854752	1323.771086316956	949.106769034160	140.373011707310	890.458516590983	1145.294675034805	695.949499973895	886.064358016976	885.208496017039	727.974816644471	
21	18.295714285714	846.671820254799	1002.195963888564	427.289700166918	1038.918814627638	1419.891482557273	229.388806328734	1126.847571718892	1364.889503570215	403.587584870813	1028.001555811538	1448.799876091220	564.396135895369	1005.874119395509	1492.290948950453	380.238018224084	1071.965858336484	944.202938068518	555.999448509504	1069.646593036317	964.492242473268	278.643512872602	1142.577273630962	760.958343400645	532.620310865872	1089.855256618998	643.445661153233	607.622225131646	1176.798936454991	599.201156284109	530.087523276299	1203.226404272335	518.804028664785	547.172752377538	1079.817683159392	739.020065717685	308.333301190687	969.165070571933	639.486160201559	241.586327729601	1033.224115426509	549.275711744471	305.254554912565	1020.443484884744	483.869924385551	313.669680709315	991.754381363623	415.600284676698	304.759290740921	895.553872515759	306.033177714881	253.461780206734	943.208387257025	192.681604442944	325.842695865705	1186.607875644309	430.855311469472	561.507730729530	1132.421933571118	322.297249620114	631.372481384155	1196.676838992720	232.466788703041	580.784993683735	1098.418194997834	50.793215519981	564.490338686328	1265.604979820407	116.690350843625	593.903004025572	1185.694371461609	47.538165011701	634.033727195581	1388.951334347007	75.219409261659	614.433727565273	811.243856888123	38.379234549085	369.721107447174	885.647703662463	34.458828271153	289.399842160623	968.591281390880	96.144936723745	316.806919803587	1097.706314276518	44.774844566700	291.078797999042	1093.836483106487	1073.207894087769	114.482737729532	1326.409544349361	954.822209801698	143.522852965684	891.891144611810	1143.009609551515	698.293194724199	891.466501097356	882.517966189079	728.339848555175	
